# xmcd CD database file
#
# Track frame offsets:
#	150
#	12930
#	27618
#	39949
#	51432
#	63054
#	75375
#	88685
#	100695
#	112403
#	124198
#	138213
#	149610
#	161587
#	172372
#
# Disc length: 2445 seconds
#
# Revision: 1
# Processed by: cddbd v1.5.2PL0 Copyright (c) Steve Scherf et al.
# Submitted via: CDex 1.51
#
DISCID=d0098b0f
DTITLE=Roy Rogers - Don't Fence Me In
DYEAR=2003
DGENRE=Country
TTITLE0=Don't Fence Me In
TTITLE1=Tumblin' Tumble Weeds
TTITLE2=On The Old Spanish Trail
TTITLE3=Roll On Texas Moon
TTITLE4=Yellow Rose Of Texas
TTITLE5=When The Golden Train Comes Down
TTITLE6=Along The Navajo Trail
TTITLE7=Home On The Range
TTITLE8=Chapel In The Valley
TTITLE9=San Fernando Valley
TTITLE10=Listen To The Rhythm On The Range
TTITLE11=Time Changes Everything
TTITLE12=Hold That Critter Down
TTITLE13=My Chackashay Girl
TTITLE14=Hi Ho Silver
EXTD=YEAR: 2003
EXTT0=
EXTT1=
EXTT2=
EXTT3=
EXTT4=
EXTT5=
EXTT6=
EXTT7=
EXTT8=
EXTT9=
EXTT10=
EXTT11=
EXTT12=
EXTT13=
EXTT14=
PLAYORDER=
